<svg id="Capa_1" enable-background="new 0 0 512 512" height="512" viewBox="0 0 512 512" width="512" xmlns="http://www.w3.org/2000/svg"><g><path d="m0 60.986v247.55h241v-308.536h-180.014zm211 217.55h-181v-175.089h73.447v-73.447h107.553zm-137.553-248.536v43.447h-43.447v-.035l43.412-43.412z"/><path d="m331.986 203.464-60.986 60.986v247.55h241v-308.536zm12.426 30h.035v43.447h-43.447v-.035zm137.588 248.536h-181v-175.089h73.447v-73.447h107.553z"/><path d="m359.014 71.281c26.925 0 49.621 18.439 56.134 43.352l-18.713-14.535-18.402 23.693 53.996 41.94 53.995-41.941-18.402-23.691-21.486 16.689c-6.092-42.628-42.836-75.506-87.122-75.506-48.531 0-88.014 39.482-88.014 88.014h30c0-31.99 26.024-58.015 58.014-58.015z"/><path d="m152.986 440.719c-26.925 0-49.621-18.439-56.134-43.352l18.713 14.535 18.402-23.693-53.996-41.94-53.994 41.941 18.402 23.691 21.486-16.689c6.092 42.628 42.836 75.506 87.122 75.506 48.531 0 88.014-39.482 88.014-88.014h-30c-.001 31.99-26.025 58.015-58.015 58.015z"/><path d="m60 136.447h121v30h-121z"/><path d="m60 196.447h121v30h-121z"/><path d="m331 339.911h121v30h-121z"/><path d="m331 399.911h121v30h-121z"/></g></svg>