<?xml version="1.0"?>
<svg xmlns="http://www.w3.org/2000/svg" id="Line_cutting_stroke_ex" data-name="Line cutting stroke ex" width="512" height="512" viewBox="0 0 512 512"><g><rect x="216" y="128" width="16" height="16"/><path d="M280,180H264c0,1.41-3.0371,4-8,4s-8-2.59-8-4H232c0,11.2148,10.542,20,24,20S280,191.2148,280,180Z"/><path d="M216,376V328a7.9994,7.9994,0,0,0-6.7832-7.9067l-104-16A8,8,0,0,0,96,312v24h16V321.3247l88,13.5386v31.8218l-62.792-9.5933-2.416,15.8164,72,11A8.0006,8.0006,0,0,0,216,376Z"/><rect x="164.5" y="373.0101" width="16" height="73.9797" transform="translate(-260.0509 513.7108) rotate(-80.665)"/><rect x="157.9395" y="398.4727" width="15.9999" height="88.9745" transform="translate(-297.5269 537.5557) rotate(-80.9992)"/><path d="M305.6807,423.8442l79.8906-16-3.1426-15.6884-70.3193,14.083V334.8623L400,321.3262V336h16V312a7.9991,7.9991,0,0,0-9.2178-7.9067l-103.8906,16A8,8,0,0,0,296.1094,328v88a8,8,0,0,0,9.5713,7.8442Z"/><rect x="303.2786" y="431.9999" width="89.4427" height="16.0001" transform="translate(-73.0761 69.3264) rotate(-10.3017)"/><path d="M448,344.1106V272a8.0005,8.0005,0,0,0-9.1318-7.9194l-167.31,23.9013L300.46,247.52l81.5132,13.5859a11.86,11.86,0,0,1,5.2246,2.2324l9.6054-12.7959a28.0979,28.0979,0,0,0-12.1992-5.2188l-83.0073-13.8349-3.8818-11.6449,9.4526-4.7868A37.8183,37.8183,0,0,0,328,181.1558V168h6a18.0206,18.0206,0,0,0,18-18V130a18.063,18.063,0,0,0-8-14.96V84a67.9874,67.9874,0,0,0-9.0713-33.9526l-13.8574,7.999A51.963,51.963,0,0,1,328,84v36H284a52.0589,52.0589,0,0,1-52-52V32h44a51.8289,51.8289,0,0,1,35.3516,13.8652l10.8808-11.73A67.7783,67.7783,0,0,0,276,16H204a28.0314,28.0314,0,0,0-28,28V68a27.9181,27.9181,0,0,0,8.4229,20H184v24h-6a18.0206,18.0206,0,0,0-18,18v20a18.0206,18.0206,0,0,0,18,18h6v13.459a37.7925,37.7925,0,0,0,21.0059,33.9883l9.21,4.6051-3.8123,11.4364-83.0073,13.8349a28.0979,28.0979,0,0,0-12.1992,5.2188l9.6054,12.7959a11.86,11.86,0,0,1,5.2246-2.2324L211.5405,247.52l28.9012,40.4618-167.31-23.9013A8.0005,8.0005,0,0,0,64,272v72.1106A18.0262,18.0262,0,0,0,48,362v52a18.0262,18.0262,0,0,0,16,17.8894V464a8,8,0,0,0,6.8691,7.9194l48,6.857,2.2618-15.8389L80,457.0615V432h2a38.0433,38.0433,0,0,0,38-38V382a38.0433,38.0433,0,0,0-38-38H80V281.2241l152,21.7144V478.7759l-94.8682-13.5523-2.2636,15.8389,103.8808,14.84q.2589.0406.5235.0645l.041.0035c.0366.0031.0735.0063.1106.0089.0432.0031.0866.0057.13.0081l.0749.0038c.0457.0021.0916.0039.1372.0052l.0508.0014c.061.0013.1221.0023.1831.0023h32a8.0455,8.0455,0,0,0,1.251-.0977l167.8808-23.9829A8,8,0,0,0,448,464V431.8894A18.0262,18.0262,0,0,0,464,414V362A18.0262,18.0262,0,0,0,448,344.1106ZM104,382v12a22.0248,22.0248,0,0,1-22,22H66a2.0023,2.0023,0,0,1-2-2V362a2.0023,2.0023,0,0,1,2-2H82A22.0248,22.0248,0,0,1,104,382ZM336,136v14a2.0023,2.0023,0,0,1-2,2h-6V136ZM192,44a12.0134,12.0134,0,0,1,12-12h12V80H204a12.0134,12.0134,0,0,1-12-12ZM178,152a2.0023,2.0023,0,0,1-2-2V130a2.0023,2.0023,0,0,1,2-2h6v24Zm22,29.459V95.7147A28.1182,28.1182,0,0,0,204,96h18.0352A68.0962,68.0962,0,0,0,284,136h28v45.1558a21.8938,21.8938,0,0,1-12.0615,19.6269l-38.5733,19.5337a12.0524,12.0524,0,0,1-10.7881.0278l-38.415-19.2075A21.8807,21.8807,0,0,1,200,181.459Zm28.6729,45.8218,14.748,7.374a28.1205,28.1205,0,0,0,25.1719-.064l14.6914-7.44,3.8379,11.5138L256,282.2363,224.8779,238.665ZM280,478.776V376H264V480H248V304h16v56h16V302.9382l152-21.7141V344h-2a38.0433,38.0433,0,0,0-38,38v12a38.0433,38.0433,0,0,0,38,38h2v25.0615ZM448,414a2.0023,2.0023,0,0,1-2,2H430a22.0248,22.0248,0,0,1-22-22V382a22.0248,22.0248,0,0,1,22-22h16a2.0023,2.0023,0,0,1,2,2Z"/></g></svg>
