<svg id="Layer_1" enable-background="new 0 0 512.167 512.167" height="512" viewBox="0 0 512.167 512.167" width="512" xmlns="http://www.w3.org/2000/svg"><g id="XMLID_1039_"><g id="XMLID_393_"><path id="XMLID_868_" d="m172.96 393.374c-2.63 0-5.21 1.06-7.07 2.93-1.859 1.86-2.93 4.43-2.93 7.07 0 2.63 1.07 5.21 2.93 7.07s4.44 2.93 7.07 2.93 5.21-1.07 7.07-2.93c1.859-1.86 2.93-4.44 2.93-7.07 0-2.64-1.07-5.21-2.93-7.07-1.86-1.871-4.44-2.93-7.07-2.93z"/><path id="XMLID_872_" d="m264.315 328.208c0-5.523-4.478-10-10-10h-111.67c-5.522 0-10 4.477-10 10s4.478 10 10 10h111.67c5.523 0 10-4.477 10-10z"/><path id="XMLID_891_" d="m130.997 226.208h134.967c5.522 0 10-4.477 10-10s-4.478-10-10-10h-134.967c-5.522 0-10 4.477-10 10s4.478 10 10 10z"/><path id="XMLID_913_" d="m195.461 148.137c-7.262 0-13.169-4.947-13.169-11.027 0-5.523-4.478-10-10-10s-10 4.477-10 10c0 13.849 9.752 25.605 23.169 29.583v1.39c0 5.523 4.478 10 10 10s10-4.477 10-10v-1.39c13.417-3.977 23.169-15.733 23.169-29.583 0-17.108-14.88-31.027-33.169-31.027-7.262 0-13.169-4.947-13.169-11.027s5.907-11.027 13.169-11.027 13.169 4.947 13.169 11.027c0 5.523 4.478 10 10 10s10-4.477 10-10c0-13.849-9.752-25.605-23.169-29.583v-1.39c0-5.523-4.478-10-10-10s-10 4.477-10 10v1.39c-13.417 3.977-23.169 15.733-23.169 29.583 0 17.108 14.88 31.027 33.169 31.027 7.262 0 13.169 4.947 13.169 11.027s-5.907 11.027-13.169 11.027z"/><path id="XMLID_1103_" d="m496.166 308.961-15.601 11.205c-23.41 16.814-51.02 25.702-79.843 25.702h-34.785c-8.28 0-15.018-6.737-15.018-15.017 0-8.281 6.737-15.018 15.018-15.018h17c29.145 0 52.963-23.185 54.012-52.078l43.689-75.672h21.528c5.522 0 10-4.477 10-10s-4.478-10-10-10h-9.981l18.641-32.288c1.326-2.297 1.686-5.026.999-7.588s-2.362-4.746-4.659-6.072l-38.105-22c-4.784-2.761-10.899-1.122-13.66 3.66l-37.116 64.288h-9.445c-5.007 0-9.961.343-14.84 1.003v-159.003c0-5.523-4.478-10-10-10h-374c-5.522 0-10 4.477-10 10v492c0 5.523 4.478 10 10 10h374c5.522 0 10-4.477 10-10v-136.215h6.723c33.035 0 64.679-10.186 91.511-29.458l15.601-11.205c4.485-3.222 5.51-9.47 2.288-13.956-3.222-4.484-9.469-5.511-13.957-2.288zm-140.394 55.397-.079.137-23.947 17.479 3.164-29.479 1.579-2.735c4.45 6.909 11.258 12.159 19.283 14.598zm111.95-241.902 20.785 12-91.376 158.267c-4.324 1.991-9.129 3.11-14.193 3.11h-15.315zm-113.3 156.242c-.001.003-.003.005-.005.007l-25.895 44.851c-1.646 2.85-4.325 4.787-7.547 5.456-3.22.669-6.452-.042-9.096-2.002-3.707-2.749-5.383-7.417-4.268-11.896l14.798-59.472c3.921-15.758 12.075-30.143 23.581-41.601 16.302-16.235 37.795-25.369 60.717-25.905zm-334.422 213.385v-472h354v153.664c-15.682 5.269-30.062 14.112-42.122 26.122-14.089 14.031-24.074 31.646-28.876 50.943l-2.835 11.396h-210.873c-5.522 0-10 4.477-10 10s4.478 10 10 10h205.896l-6.986 28.075c-3.072 12.345 1.546 25.217 11.766 32.793 4.49 3.329 9.748 5.339 15.196 5.951l-4.759 44.343h-92.446c-5.522 0-10 4.477-10 10s4.478 10 10 10h101.431c2.077 0 4.148-.647 5.896-1.923l43.904-32.044c1.126-.822 2.067-1.871 2.765-3.078l2.044-3.54v119.297h-354.001z"/></g></g></svg>