<svg height="512" viewBox="0 0 64 64" width="512" xmlns="http://www.w3.org/2000/svg"><g id="Flat"><path d="m61.31 56.51a4.939 4.939 0 0 1 -4.32 2.49h-49.98a5.006 5.006 0 0 1 -4.35-7.47l24.99-44a4.946 4.946 0 0 1 4.35-2.53 4.96 4.96 0 0 1 4.35 2.53l24.99 44a4.93 4.93 0 0 1 -.03 4.98z" fill="#c1272d"/><path d="m7.01 55a.938.938 0 0 1 -.854-.487.948.948 0 0 1 -.022-1l25-44.008a.945.945 0 0 1 .866-.505.957.957 0 0 1 .873.509l24.988 44a.933.933 0 0 1 0 .978.952.952 0 0 1 -.87.516z" fill="#ffe184"/><path d="m32 44a2.373 2.373 0 0 1 -2.363-2.158l-1.578-19.53a3.954 3.954 0 0 1 3.941-4.312 3.954 3.954 0 0 1 3.938 4.312l-1.578 19.53a2.373 2.373 0 0 1 -2.36 2.158z"/><circle cx="32" cy="49" r="3"/><path d="m49.9 25.376a1 1 0 0 1 -.769-.762 7.857 7.857 0 0 0 -3.006-4.629 1 1 0 1 1 1.188-1.608 9.851 9.851 0 0 1 3.77 5.805 1 1 0 0 1 -.761 1.192.969.969 0 0 1 -.422.002z" fill="#ffcc5c"/><path d="m54.9 25.55a1 1 0 0 1 -.786-.881 12.005 12.005 0 0 0 -6.014-9.259 1 1 0 0 1 .988-1.738 14 14 0 0 1 7.015 10.8 1 1 0 0 1 -.9 1.092 1.037 1.037 0 0 1 -.303-.014z" fill="#f7931e"/><path d="m59.791 25.722a1 1 0 0 1 -.79-.948 15.9 15.9 0 0 0 -9.01-13.874 1 1 0 0 1 .869-1.8 17.892 17.892 0 0 1 10.14 15.614 1 1 0 0 1 -.969 1.03 1.057 1.057 0 0 1 -.24-.022z" fill="#f15a24"/></g></svg>