<svg height="512" viewBox="0 0 55 60" width="512" xmlns="http://www.w3.org/2000/svg"><g id="Page-1" fill-rule="evenodd"><g id="038---Favourite-File" fill-rule="nonzero"><path id="Shape" d="m33 58h9c.2651948-.0000566.5195073-.1054506.707-.293l12-12c.1875494-.1874927.2929434-.4418052.293-.707v-40c-.0033061-2.76005315-2.2399468-4.99669388-5-5h-40c-2.76005315.00330612-4.99669388 2.23994685-5 5v17c0 .5522847.44771525 1 1 1s1-.4477153 1-1v-17c0-1.65685425 1.34314575-3 3-3h40c1.6568542 0 3 1.34314575 3 3v39h-7c-2.7600532.0033061-4.9966939 2.2399468-5 5v7h-8c-.5522847 0-1 .4477153-1 1s.4477153 1 1 1zm13-12h5.586l-8.586 8.586v-5.586c0-1.6568542 1.3431458-3 3-3z"/><path id="Shape" d="m12 8h2c.5522847 0 1-.44771525 1-1s-.4477153-1-1-1h-2c-.5522847 0-1 .44771525-1 1s.4477153 1 1 1z"/><path id="Shape" d="m48 6h-30c-.5522847 0-1 .44771525-1 1s.4477153 1 1 1h30c.5522847 0 1-.44771525 1-1s-.4477153-1-1-1z"/><path id="Shape" d="m12 14h2c.5522847 0 1-.4477153 1-1s-.4477153-1-1-1h-2c-.5522847 0-1 .4477153-1 1s.4477153 1 1 1z"/><path id="Shape" d="m18 14h23c.5522847 0 1-.4477153 1-1s-.4477153-1-1-1h-23c-.5522847 0-1 .4477153-1 1s.4477153 1 1 1z"/><path id="Shape" d="m12 20h2c.5522847 0 1-.4477153 1-1s-.4477153-1-1-1h-2c-.5522847 0-1 .4477153-1 1s.4477153 1 1 1z"/><path id="Shape" d="m18 20h16c.5522847 0 1-.4477153 1-1s-.4477153-1-1-1h-16c-.5522847 0-1 .4477153-1 1s.4477153 1 1 1z"/><path id="Shape" d="m51 21c0-.5522847-.4477153-1-1-1s-1 .4477153-1 1v14c0 .5522847.4477153 1 1 1s1-.4477153 1-1z"/><path id="Shape" d="m50 38c-.5522847 0-1 .4477153-1 1v2c0 .5522847.4477153 1 1 1s1-.4477153 1-1v-2c0-.5522847-.4477153-1-1-1z"/><path id="Shape" d="m19.223 59.952c.198679.0637439.412321.0637439.611 0 14.146-4.537 19.166-14.898 19.166-22.392 0-6.992-4.5-12.468-10.236-12.468-3.4328553.00688-6.7346496 1.3188749-9.236 3.67-2.5014599-2.3509529-5.8031833-3.6629196-9.236-3.67-5.739 0-10.235 5.476-10.235 12.468 0 7.494 5.019 17.856 19.166 22.392zm-8.931-32.86c3.2167013.0243806 6.2796904 1.379756 8.461 3.744.1894754.232339.4731967.3674094.773.368.300504.0000095.5850815-.1351189.775-.368 2.1810013-2.3640908 5.2436216-3.7194632 8.46-3.744 4.618 0 8.236 4.6 8.236 10.468 0 6.768-4.584 16.132-17.472 20.388-12.884-4.256-17.468-13.62-17.468-20.388 0-5.87 3.617-10.468 8.235-10.468z"/></g></g></svg>