<svg id="Glyph" enable-background="new 0 0 64 64" height="512" viewBox="0 0 64 64" width="512" xmlns="http://www.w3.org/2000/svg"><path d="m24 25h6l-3-5z"/><path d="m25 54v2c0 3.314-2.686 6-6 6h39c2.209 0 4-1.791 4-4v-4z"/><path d="m23 56v-4h30v-18.172l-9.171 9.172h-6.829l-7 7-1.293-1.293 27-27 1.293 1.293-18 18h4l9.971-9.971c4.5-4.5 7.029-10.605 7.029-16.97v-6.059l-25 25v6.586l-2 2v-9.414l20-20v-4.172c0-3.314-2.686-6-6-6h-32-6l-.504.025c-3.68.255-6.496 3.272-6.496 7.086 0 3.247 2.691 5.889 6 5.889 2.757 0 5-2.203 5-4.911 0-2.276-1.884-4.129-4.2-4.129-1.963 0-3.56 1.571-3.56 3.503h2c0-.829.7-1.503 1.56-1.503 1.213 0 2.2.955 2.2 2.129 0 1.605-1.346 2.911-3 2.911-2.206 0-4-1.744-4-3.889 0-2.914 2.149-5.111 5-5.111h3.897c1.297 1.27 2.103 3.039 2.103 5v47c0 2.209 1.791 4 4 4s4-1.791 4-4zm-5-31h2v-4l5.833-5-5.833-5v-4h-2v-2h18v2h-2v4l-5.833 5 5.833 5v4h2v2h-18z"/></svg>